<?xml version="1.0" encoding="UTF-8" standalone="no"?>
<!-- Created with Inkscape (http://www.inkscape.org/) -->

<svg
   xmlns:dc="http://purl.org/dc/elements/1.1/"
   xmlns:cc="http://creativecommons.org/ns#"
   xmlns:rdf="http://www.w3.org/1999/02/22-rdf-syntax-ns#"
   xmlns:svg="http://www.w3.org/2000/svg"
   xmlns="http://www.w3.org/2000/svg"
   xmlns:sodipodi="http://sodipodi.sourceforge.net/DTD/sodipodi-0.dtd"
   xmlns:inkscape="http://www.inkscape.org/namespaces/inkscape"
   width="531.49603"
   height="354.33069"
   id="svg2"
   version="1.1"
   inkscape:version="0.48.5 r10040"
   sodipodi:docname="Zeichnung2.svg"
   inkscape:export-filename="C:\Users\Skocek\Desktop\Studium\Masterarbeit\Zeichnung.png"
   inkscape:export-xdpi="90"
   inkscape:export-ydpi="90">
  <sodipodi:namedview
     id="base"
     pagecolor="#ffffff"
     bordercolor="#666666"
     borderopacity="1.0"
     inkscape:pageopacity="0.0"
     inkscape:pageshadow="2"
     inkscape:zoom="1"
     inkscape:cx="262.81015"
     inkscape:cy="185.55606"
     inkscape:document-units="px"
     inkscape:current-layer="layer1"
     showgrid="false"
     inkscape:object-paths="true"
     inkscape:snap-object-midpoints="true"
     inkscape:object-nodes="true"
     inkscape:window-width="1366"
     inkscape:window-height="706"
     inkscape:window-x="-8"
     inkscape:window-y="-8"
     inkscape:window-maximized="1"
     fit-margin-top="0"
     fit-margin-left="0"
     fit-margin-right="0"
     fit-margin-bottom="0"
     units="cm" />
  <defs
     id="defs4">
    <marker
       inkscape:stockid="Arrow2Mend"
       orient="auto"
       refY="0.0"
       refX="0.0"
       id="Arrow2Mend"
       style="overflow:visible;">
      <path
         id="path5586"
         style="fill-rule:evenodd;stroke-width:0.62500000;stroke-linejoin:round;"
         d="M 8.7185878,4.0337352 L -2.2072895,0.016013256 L 8.7185884,-4.0017078 C 6.9730900,-1.6296469 6.9831476,1.6157441 8.7185878,4.0337352 z "
         transform="scale(0.6) rotate(180) translate(0,0)" />
    </marker>
    <marker
       inkscape:stockid="Arrow1Lend"
       orient="auto"
       refY="0.0"
       refX="0.0"
       id="Arrow1Lend"
       style="overflow:visible;">
      <path
         id="path5562"
         d="M 0.0,0.0 L 5.0,-5.0 L -12.5,0.0 L 5.0,5.0 L 0.0,0.0 z "
         style="fill-rule:evenodd;stroke:#000000;stroke-width:1.0pt;"
         transform="scale(0.8) rotate(180) translate(12.5,0)" />
    </marker>
    <marker
       inkscape:stockid="Arrow2Mstart"
       orient="auto"
       refY="0.0"
       refX="0.0"
       id="Arrow2Mstart"
       style="overflow:visible">
      <path
         id="path5583"
         style="fill-rule:evenodd;stroke-width:0.62500000;stroke-linejoin:round"
         d="M 8.7185878,4.0337352 L -2.2072895,0.016013256 L 8.7185884,-4.0017078 C 6.9730900,-1.6296469 6.9831476,1.6157441 8.7185878,4.0337352 z "
         transform="scale(0.6) translate(0,0)" />
    </marker>
    <marker
       inkscape:stockid="Arrow1Mend"
       orient="auto"
       refY="0.0"
       refX="0.0"
       id="Arrow1Mend"
       style="overflow:visible;">
      <path
         id="path5568"
         d="M 0.0,0.0 L 5.0,-5.0 L -12.5,0.0 L 5.0,5.0 L 0.0,0.0 z "
         style="fill-rule:evenodd;stroke:#000000;stroke-width:1.0pt;"
         transform="scale(0.4) rotate(180) translate(10,0)" />
    </marker>
    <marker
       inkscape:stockid="Arrow1Mstart"
       orient="auto"
       refY="0.0"
       refX="0.0"
       id="Arrow1Mstart"
       style="overflow:visible">
      <path
         id="path5565"
         d="M 0.0,0.0 L 5.0,-5.0 L -12.5,0.0 L 5.0,5.0 L 0.0,0.0 z "
         style="fill-rule:evenodd;stroke:#000000;stroke-width:1.0pt"
         transform="scale(0.4) translate(10,0)" />
    </marker>
    <marker
       inkscape:stockid="Arrow1Send"
       orient="auto"
       refY="0.0"
       refX="0.0"
       id="Arrow1Send"
       style="overflow:visible;">
      <path
         id="path5574"
         d="M 0.0,0.0 L 5.0,-5.0 L -12.5,0.0 L 5.0,5.0 L 0.0,0.0 z "
         style="fill-rule:evenodd;stroke:#000000;stroke-width:1.0pt;"
         transform="scale(0.2) rotate(180) translate(6,0)" />
    </marker>
    <marker
       inkscape:stockid="Arrow1Sstart"
       orient="auto"
       refY="0.0"
       refX="0.0"
       id="Arrow1Sstart"
       style="overflow:visible">
      <path
         id="path5571"
         d="M 0.0,0.0 L 5.0,-5.0 L -12.5,0.0 L 5.0,5.0 L 0.0,0.0 z "
         style="fill-rule:evenodd;stroke:#000000;stroke-width:1.0pt"
         transform="scale(0.2) translate(6,0)" />
    </marker>
    <marker
       inkscape:stockid="Arrow1MstartR"
       orient="auto"
       refY="0.0"
       refX="0.0"
       id="Arrow1MstartR"
       style="overflow:visible">
      <path
         id="path6760"
         d="M 0.0,0.0 L 5.0,-5.0 L -12.5,0.0 L 5.0,5.0 L 0.0,0.0 z "
         style="stroke:#fa0000;stroke-width:1.0pt;fill:#fa0000;fill-rule:evenodd"
         transform="scale(0.4) translate(10,0)" />
    </marker>
    <marker
       inkscape:stockid="Arrow1MendA"
       orient="auto"
       refY="0.0"
       refX="0.0"
       id="Arrow1MendA"
       style="overflow:visible;">
      <path
         id="path6763"
         d="M 0.0,0.0 L 5.0,-5.0 L -12.5,0.0 L 5.0,5.0 L 0.0,0.0 z "
         style="stroke:#fa0000;stroke-width:1.0pt;fill:#fa0000;fill-rule:evenodd"
         transform="scale(0.4) rotate(180) translate(10,0)" />
    </marker>
    <marker
       inkscape:stockid="Arrow1MstartR0"
       orient="auto"
       refY="0.0"
       refX="0.0"
       id="Arrow1MstartR0"
       style="overflow:visible">
      <path
         id="path6869"
         d="M 0.0,0.0 L 5.0,-5.0 L -12.5,0.0 L 5.0,5.0 L 0.0,0.0 z "
         style="fill-rule:evenodd;stroke:#000000;stroke-width:1.0pt;fill:#000000"
         transform="scale(0.4) translate(10,0)" />
    </marker>
    <marker
       inkscape:stockid="Arrow1MendAc"
       orient="auto"
       refY="0.0"
       refX="0.0"
       id="Arrow1MendAc"
       style="overflow:visible;">
      <path
         id="path6872"
         d="M 0.0,0.0 L 5.0,-5.0 L -12.5,0.0 L 5.0,5.0 L 0.0,0.0 z "
         style="fill-rule:evenodd;stroke:#000000;stroke-width:1.0pt;fill:#000000"
         transform="scale(0.4) rotate(180) translate(10,0)" />
    </marker>
    <marker
       inkscape:stockid="Arrow2Mend"
       orient="auto"
       refY="0"
       refX="0"
       id="Arrow2Mend-9"
       style="overflow:visible">
      <path
         inkscape:connector-curvature="0"
         id="path5586-0"
         style="fill-rule:evenodd;stroke-width:0.625;stroke-linejoin:round"
         d="M 8.7185878,4.0337352 -2.2072895,0.01601326 8.7185884,-4.0017078 c -1.7454984,2.3720609 -1.7354408,5.6174519 -6e-7,8.035443 z"
         transform="scale(-0.6,-0.6)" />
    </marker>
    <marker
       inkscape:stockid="Arrow2Mstart"
       orient="auto"
       refY="0"
       refX="0"
       id="Arrow2Mstart-4"
       style="overflow:visible">
      <path
         inkscape:connector-curvature="0"
         id="path5583-9"
         style="fill-rule:evenodd;stroke-width:0.625;stroke-linejoin:round"
         d="M 8.7185878,4.0337352 -2.2072895,0.01601326 8.7185884,-4.0017078 c -1.7454984,2.3720609 -1.7354408,5.6174519 -6e-7,8.035443 z"
         transform="scale(0.6,0.6)" />
    </marker>
  </defs>
  <metadata
     id="metadata7">
    <rdf:RDF>
      <cc:Work
         rdf:about="">
        <dc:format>image/svg+xml</dc:format>
        <dc:type
           rdf:resource="http://purl.org/dc/dcmitype/StillImage" />
        <dc:title />
      </cc:Work>
    </rdf:RDF>
  </metadata>
  <g
     inkscape:label="Ebene 1"
     inkscape:groupmode="layer"
     id="layer1"
     transform="translate(214.8972,-603.22336)">
    <flowRoot
       xml:space="preserve"
       id="flowRoot5428"
       style="font-size:40px;font-style:normal;font-weight:bold;line-height:139.99999762%;letter-spacing:0px;word-spacing:0px;fill:#000000;fill-opacity:1;stroke:none;font-family:Sans;-inkscape-font-specification:Sans Bold"
       transform="translate(114,-10)"><flowRegion
         id="flowRegion5430"><rect
           id="rect5432"
           width="300"
           height="148.57143"
           x="205.71428"
           y="220.93361"
           style="font-weight:bold;line-height:139.99999762%;-inkscape-font-specification:Sans Bold" /></flowRegion><flowPara
         id="flowPara5434" /></flowRoot>    <text
       xml:space="preserve"
       style="font-size:40px;font-style:normal;font-weight:normal;line-height:125%;letter-spacing:0px;word-spacing:0px;fill:#000000;fill-opacity:1;stroke:none;font-family:Sans"
       x="405.42856"
       y="265.21933"
       id="text5436"
       sodipodi:linespacing="125%"><tspan
         sodipodi:role="line"
         id="tspan5438"
         x="405.42856"
         y="265.21933" /></text>
    <flowRoot
       xml:space="preserve"
       id="flowRoot5491"
       style="font-size:40px;font-style:normal;font-weight:normal;line-height:125%;letter-spacing:0px;word-spacing:0px;fill:#000000;fill-opacity:1;stroke:none;font-family:Sans"
       transform="translate(114,-10)"><flowRegion
         id="flowRegion5493"><rect
           id="rect5495"
           width="311.42856"
           height="180"
           x="811.42859"
           y="612.36218" /></flowRegion><flowPara
         id="flowPara5497" /></flowRoot>    <text
       xml:space="preserve"
       style="font-size:40px;font-style:normal;font-weight:normal;line-height:125%;letter-spacing:0px;word-spacing:0px;fill:#000000;fill-opacity:1;stroke:none;font-family:Sans"
       x="1102.5714"
       y="670.93359"
       id="text5499"
       sodipodi:linespacing="125%"><tspan
         sodipodi:role="line"
         id="tspan5501"
         x="1102.5714"
         y="670.93359" /></text>
    <text
       xml:space="preserve"
       style="font-size:40px;font-style:normal;font-weight:normal;line-height:125%;letter-spacing:0px;word-spacing:0px;fill:#000000;fill-opacity:1;stroke:none;font-family:Sans"
       x="1162.5714"
       y="656.64789"
       id="text5503"
       sodipodi:linespacing="125%"><tspan
         sodipodi:role="line"
         id="tspan5505"
         x="1162.5714"
         y="656.64789" /></text>
    <text
       xml:space="preserve"
       style="font-size:40px;font-style:normal;font-weight:normal;line-height:125%;letter-spacing:0px;word-spacing:0px;fill:#000000;fill-opacity:1;stroke:none;font-family:Sans"
       x="1356.8571"
       y="493.79074"
       id="text5507"
       sodipodi:linespacing="125%"><tspan
         sodipodi:role="line"
         id="tspan5509"
         x="1356.8571"
         y="493.79074" /></text>
    <text
       xml:space="preserve"
       style="font-size:40px;font-style:normal;font-weight:normal;line-height:125%;letter-spacing:0px;word-spacing:0px;fill:#000000;fill-opacity:1;stroke:none;font-family:Sans"
       x="198.39285"
       y="211.83069"
       id="text6995"
       sodipodi:linespacing="125%"
       transform="translate(-214.8972,603.22336)"><tspan
         sodipodi:role="line"
         id="tspan6997" /></text>
    <text
       xml:space="preserve"
       style="font-size:16px;font-style:normal;font-weight:normal;line-height:125%;letter-spacing:0px;word-spacing:0px;fill:#000000;fill-opacity:1;stroke:none;font-family:Sans"
       x="287.26212"
       y="245.67616"
       id="text7007"
       sodipodi:linespacing="125%"
       transform="translate(-214.8972,603.22336)"><tspan
         sodipodi:role="line"
         id="tspan7009" /></text>
    <path
       sodipodi:type="arc"
       style="fill:none;stroke:#000000;stroke-width:0.1;stroke-miterlimit:4;stroke-opacity:1;stroke-dasharray:none;stroke-dashoffset:0"
       id="path12679"
       sodipodi:cx="219.28571"
       sodipodi:cy="165.04498"
       sodipodi:rx="49.285713"
       sodipodi:ry="55"
       d="m 268.57142,165.04498 a 49.285713,55 0 1 1 -98.57143,0 49.285713,55 0 1 1 98.57143,0 z"
       transform="matrix(1.0943799,0,0,0.98069461,-115.71336,604.74638)" />
    <path
       sodipodi:type="arc"
       style="fill:none;stroke:#000000;stroke-width:0.1;stroke-miterlimit:4;stroke-opacity:1;stroke-dasharray:none;stroke-dashoffset:0"
       id="path12679-8"
       sodipodi:cx="219.28571"
       sodipodi:cy="165.04498"
       sodipodi:rx="49.285713"
       sodipodi:ry="55"
       d="m 268.57142,165.04498 a 49.285713,55 0 1 1 -98.57143,0 49.285713,55 0 1 1 98.57143,0 z"
       transform="matrix(0,0.98274018,-0.88066735,0,269.61823,551.10423)" />
    <path
       sodipodi:type="arc"
       style="fill:none;stroke:#000000;stroke-width:0.1;stroke-miterlimit:4;stroke-opacity:1;stroke-dasharray:none;stroke-dashoffset:0"
       id="path12679-8-1"
       sodipodi:cx="219.28571"
       sodipodi:cy="165.04498"
       sodipodi:rx="49.285713"
       sodipodi:ry="55"
       d="m 268.57142,165.04498 a 49.285713,55 0 1 1 -98.57143,0 49.285713,55 0 1 1 98.57143,0 z"
       transform="matrix(1.2871429,0,0,1.1534155,-157.98354,576.23966)" />
    <path
       style="fill:none;stroke:#000000;stroke-width:0.92232555;stroke-linecap:butt;stroke-linejoin:miter;stroke-miterlimit:4;stroke-opacity:1;stroke-dasharray:0.92232557, 0.92232557;stroke-dashoffset:0;marker-start:url(#Arrow2Mend);marker-end:url(#Arrow2Mstart)"
       d="m 75.831799,766.6051 c -15.001055,0 -15.001055,0 -15.001055,0"
       id="path13708"
       inkscape:connector-curvature="0" />
    <path
       style="fill:none;stroke:#000000;stroke-width:1.08144605;stroke-linecap:butt;stroke-linejoin:miter;stroke-miterlimit:4;stroke-opacity:1;stroke-dasharray:1.0814461, 1.0814461;stroke-dashoffset:0;marker-start:url(#Arrow2Mend);marker-end:url(#Arrow2Mstart)"
       d="m 124.2685,712.6669 c -0.0241,6.83899 -0.0241,6.83899 -0.0241,6.83899"
       id="path14520"
       inkscape:connector-curvature="0" />
    <path
       sodipodi:type="arc"
       style="fill:#000000;fill-opacity:1;stroke:#000000;stroke-width:0.1;stroke-miterlimit:4;stroke-opacity:1;stroke-dasharray:none;stroke-dashoffset:0"
       id="path12679-8-1-2-3"
       sodipodi:cx="219.28571"
       sodipodi:cy="165.04498"
       sodipodi:rx="49.285713"
       sodipodi:ry="55"
       d="m 268.57142,165.04498 c 0,30.37566 -22.06597,55 -49.28571,55 -27.21975,0 -49.28572,-24.62434 -49.28572,-55 0,-30.37566 22.06597,-55 49.28572,-55 27.21974,0 49.28571,24.62434 49.28571,55 z"
       transform="matrix(0.01855277,0,0,0.01466122,157.33049,724.4065)" />
    <path
       sodipodi:type="arc"
       style="fill:none;stroke:#000000;stroke-width:0.1;stroke-miterlimit:4;stroke-opacity:1;stroke-dasharray:none;stroke-dashoffset:0"
       id="path12679-8-1-2-2"
       sodipodi:cx="219.28571"
       sodipodi:cy="165.04498"
       sodipodi:rx="49.285713"
       sodipodi:ry="55"
       d="m 268.57142,165.04498 a 49.285713,55 0 1 1 -98.57143,0 49.285713,55 0 1 1 98.57143,0 z"
       transform="matrix(3.0405583,0,0,2.7246561,-609.39286,393.01267)" />
    <text
       xml:space="preserve"
       style="font-size:16px;font-style:normal;font-weight:normal;line-height:125%;letter-spacing:0px;word-spacing:0px;fill:#000000;fill-opacity:1;stroke:none;font-family:Sans"
       x="107.61382"
       y="767.69397"
       id="text15806"
       sodipodi:linespacing="125%"><tspan
         sodipodi:role="line"
         id="tspan15808"
         x="107.61382"
         y="767.69397">x</tspan></text>
    <text
       xml:space="preserve"
       style="font-size:16px;font-style:normal;font-weight:normal;line-height:125%;letter-spacing:0px;word-spacing:0px;fill:#000000;fill-opacity:1;stroke:none;font-family:Sans"
       x="196.61382"
       y="772.19397"
       id="text15810"
       sodipodi:linespacing="125%"><tspan
         sodipodi:role="line"
         id="tspan15812"
         x="196.61382"
         y="772.19397">z<tspan
   style="font-size:65.00091553%;baseline-shift:sub"
   id="tspan15814">ε</tspan></tspan></text>
    <path
       sodipodi:type="arc"
       style="fill:#ff0000;fill-opacity:1;stroke:#000000;stroke-width:1;stroke-miterlimit:4;stroke-opacity:1;stroke-dasharray:1, 12;stroke-dashoffset:0"
       id="path15816"
       sodipodi:cx="290.11743"
       sodipodi:cy="165.46609"
       sodipodi:rx="5.1325741"
       sodipodi:ry="3.1146185"
       d="m 295.25001,165.46609 a 5.1325741,3.1146185 0 1 1 -10.26515,0 5.1325741,3.1146185 0 1 1 10.26515,0 z"
       transform="matrix(0.2612728,0,0,0.42478604,111.73878,698.37054)" />
    <text
       xml:space="preserve"
       style="font-size:16px;font-style:normal;font-weight:normal;line-height:125%;letter-spacing:0px;word-spacing:0px;fill:#000000;fill-opacity:1;stroke:none;font-family:Sans"
       x="62.298611"
       y="781.51141"
       id="text15836"
       sodipodi:linespacing="125%"><tspan
         sodipodi:role="line"
         id="tspan15838"
         x="62.298611"
         y="781.51141">ε</tspan></text>
    <text
       xml:space="preserve"
       style="font-size:16px;font-style:normal;font-weight:normal;line-height:125%;letter-spacing:0px;word-spacing:0px;fill:#000000;fill-opacity:1;stroke:none;font-family:Sans"
       x="143.11382"
       y="753.69397"
       id="text15840"
       sodipodi:linespacing="125%"><tspan
         sodipodi:role="line"
         id="tspan15842"
         x="143.11382"
         y="753.69397">c</tspan></text>
    <path
       sodipodi:type="arc"
       style="fill:none;stroke:#000000;stroke-width:0.10000001;stroke-miterlimit:4;stroke-opacity:1;stroke-dasharray:none;stroke-dashoffset:0"
       id="path12679-8-1-2-2-1"
       sodipodi:cx="219.28571"
       sodipodi:cy="165.04498"
       sodipodi:rx="49.285713"
       sodipodi:ry="55"
       d="m 268.57142,165.04498 a 49.285713,55 0 1 1 -98.57143,0 49.285713,55 0 1 1 98.57143,0 z"
       transform="matrix(3.0405583,0,0,2.7246561,-603.63715,236.25312)" />
    <path
       sodipodi:type="arc"
       style="fill:#ff0000;fill-opacity:1;stroke:#000000;stroke-width:1;stroke-miterlimit:4;stroke-opacity:1;stroke-dasharray:1, 12;stroke-dashoffset:0"
       id="path15816-6-9"
       sodipodi:cx="290.11743"
       sodipodi:cy="165.46609"
       sodipodi:rx="5.1325741"
       sodipodi:ry="3.1146185"
       d="m 295.25001,165.46609 a 5.1325741,3.1146185 0 1 1 -10.26515,0 5.1325741,3.1146185 0 1 1 10.26515,0 z"
       transform="matrix(0.2612728,0,0,0.42478604,111.73878,698.37054)" />
    <path
       sodipodi:type="arc"
       style="fill:#ff0000;fill-opacity:1;stroke:#000000;stroke-width:1;stroke-miterlimit:4;stroke-opacity:1;stroke-dasharray:1, 12;stroke-dashoffset:0"
       id="path15816-4"
       sodipodi:cx="290.11743"
       sodipodi:cy="165.46609"
       sodipodi:rx="5.1325741"
       sodipodi:ry="3.1146185"
       d="m 295.25001,165.46609 a 5.1325741,3.1146185 0 1 1 -10.26515,0 5.1325741,3.1146185 0 1 1 10.26515,0 z"
       transform="matrix(0.2612728,0,0,0.42478604,48.468716,696.31742)" />
    <path
       sodipodi:type="arc"
       style="fill:#ff0000;fill-opacity:1;stroke:#000000;stroke-width:1;stroke-miterlimit:4;stroke-opacity:1;stroke-dasharray:1, 12;stroke-dashoffset:0"
       id="path15816-6-95"
       sodipodi:cx="290.11743"
       sodipodi:cy="165.46609"
       sodipodi:rx="5.1325741"
       sodipodi:ry="3.1146185"
       d="m 295.25001,165.46609 a 5.1325741,3.1146185 0 1 1 -10.26515,0 5.1325741,3.1146185 0 1 1 10.26515,0 z"
       transform="matrix(0.2612728,0,0,0.42478604,-18.441679,772.4158)" />
    <path
       style="fill:none;stroke:#000000;stroke-width:1px;stroke-linecap:butt;stroke-linejoin:miter;stroke-opacity:1"
       d="m 124.26851,766.60511 c 63.27006,2.05312 63.27006,2.05312 63.27006,2.05312"
       id="path17332"
       inkscape:connector-curvature="0" />
    <path
       style="fill:none;stroke:#000000;stroke-width:1;stroke-linecap:butt;stroke-linejoin:miter;stroke-miterlimit:4;stroke-opacity:1;stroke-dasharray:1, 1;stroke-dashoffset:0;marker-start:url(#Arrow2Mend-9);marker-end:url(#Arrow2Mstart-4)"
       d="m 155.2664,729.38592 c -30.99789,37.21919 -30.99789,37.21919 -30.99789,37.21919"
       id="path17334"
       inkscape:connector-curvature="0" />
    <path
       sodipodi:type="arc"
       style="fill:#ff0000;fill-opacity:1;stroke:#000000;stroke-width:1;stroke-miterlimit:4;stroke-opacity:1;stroke-dasharray:1, 12;stroke-dashoffset:0"
       id="path15816-6"
       sodipodi:cx="290.11743"
       sodipodi:cy="165.46609"
       sodipodi:rx="5.1325741"
       sodipodi:ry="3.1146185"
       d="m 295.25001,165.46609 a 5.1325741,3.1146185 0 1 1 -10.26515,0 5.1325741,3.1146185 0 1 1 10.26515,0 z"
       transform="matrix(0.2612728,0,0,0.42478604,48.468706,696.31741)" />
    <path
       sodipodi:type="arc"
       style="fill:#ff0000;fill-opacity:1;stroke:#000000;stroke-width:1;stroke-miterlimit:4;stroke-opacity:1;stroke-dasharray:1, 12;stroke-dashoffset:0"
       id="path15816-6-5"
       sodipodi:cx="290.11743"
       sodipodi:cy="165.46609"
       sodipodi:rx="5.1325741"
       sodipodi:ry="3.1146185"
       d="m 295.25001,165.46609 a 5.1325741,3.1146185 0 1 1 -10.26515,0 5.1325741,3.1146185 0 1 1 10.26515,0 z"
       transform="matrix(0.2612728,0,0,0.42478604,111.73878,698.37054)" />
    <path
       style="fill:none;stroke:#000000;stroke-width:1;stroke-linecap:butt;stroke-linejoin:miter;stroke-miterlimit:4;stroke-opacity:1;stroke-dasharray:12, 1;stroke-dashoffset:0"
       d="M 124.2685,766.6051 C 57.358111,842.70349 57.358111,842.70349 57.358111,842.70349"
       id="path17775"
       inkscape:connector-curvature="0" />
    <path
       sodipodi:type="arc"
       style="fill:#ff0000;fill-opacity:1;stroke:#000000;stroke-width:1;stroke-miterlimit:4;stroke-opacity:1;stroke-dasharray:1, 12;stroke-dashoffset:0"
       id="path15816-6-0"
       sodipodi:cx="290.11743"
       sodipodi:cy="165.46609"
       sodipodi:rx="5.1325741"
       sodipodi:ry="3.1146185"
       d="m 295.25001,165.46609 a 5.1325741,3.1146185 0 1 1 -10.26515,0 5.1325741,3.1146185 0 1 1 10.26515,0 z"
       transform="matrix(0.2612728,0,0,0.42478604,48.468716,696.31742)" />
    <path
       sodipodi:type="arc"
       style="fill:#ff0000;fill-opacity:1;stroke:#000000;stroke-width:1;stroke-miterlimit:4;stroke-opacity:1;stroke-dasharray:1, 12;stroke-dashoffset:0"
       id="path15816-6-59"
       sodipodi:cx="290.11743"
       sodipodi:cy="165.46609"
       sodipodi:rx="5.1325741"
       sodipodi:ry="3.1146185"
       d="m 295.25001,165.46609 a 5.1325741,3.1146185 0 1 1 -10.26515,0 5.1325741,3.1146185 0 1 1 10.26515,0 z"
       transform="matrix(0.2612728,0,0,0.42478604,-18.441679,772.4158)" />
    <text
       xml:space="preserve"
       style="font-size:16px;font-style:normal;font-weight:normal;line-height:125%;letter-spacing:0px;word-spacing:0px;fill:#000000;fill-opacity:1;stroke:none;font-family:Sans"
       x="109.51725"
       y="720.45715"
       id="text17791"
       sodipodi:linespacing="125%"><tspan
         sodipodi:role="line"
         id="tspan17793"
         x="109.51725"
         y="720.45715">ε'</tspan></text>
    <path
       style="fill:none;stroke:#000000;stroke-width:1px;stroke-linecap:butt;stroke-linejoin:miter;stroke-opacity:1;marker-start:url(#Arrow2Mend-9);marker-end:url(#Arrow2Mstart-4)"
       d="m 57.358111,842.70349 c 149.856089,0 149.856089,0 149.856089,0"
       id="path18244"
       inkscape:connector-curvature="0" />
    <path
       sodipodi:type="arc"
       style="fill:#ff0000;fill-opacity:1;stroke:#000000;stroke-width:1;stroke-miterlimit:4;stroke-opacity:1;stroke-dasharray:1, 12;stroke-dashoffset:0"
       id="path15816-6-6"
       sodipodi:cx="290.11743"
       sodipodi:cy="165.46609"
       sodipodi:rx="5.1325741"
       sodipodi:ry="3.1146185"
       d="m 295.25001,165.46609 a 5.1325741,3.1146185 0 1 1 -10.26515,0 5.1325741,3.1146185 0 1 1 10.26515,0 z"
       transform="matrix(0.2612728,0,0,0.42478604,-18.441679,772.4158)" />
    <path
       style="fill:none;stroke:#000000;stroke-width:1;stroke-linecap:butt;stroke-linejoin:miter;stroke-miterlimit:4;stroke-opacity:1;stroke-dasharray:2, 2;stroke-dashoffset:0"
       d="M 57.358111,842.70349 C 187.53857,768.65823 187.53857,768.65823 187.53857,768.65823"
       id="path18669"
       inkscape:connector-curvature="0" />
    <path
       style="fill:none;stroke:#000000;stroke-width:1;stroke-linecap:butt;stroke-linejoin:miter;stroke-miterlimit:4;stroke-opacity:1;stroke-dasharray:2, 2;stroke-dashoffset:0"
       d="M 113.26316,704.11845 C 57.358111,842.70349 57.358111,842.70349 57.358111,842.70349"
       id="path18671"
       inkscape:connector-curvature="0" />
    <path
       sodipodi:type="arc"
       style="fill:#ff0000;fill-opacity:1;stroke:#000000;stroke-width:1;stroke-miterlimit:4;stroke-opacity:1;stroke-dasharray:1, 12;stroke-dashoffset:0"
       id="path15816-6-3"
       sodipodi:cx="290.11743"
       sodipodi:cy="165.46609"
       sodipodi:rx="5.1325741"
       sodipodi:ry="3.1146185"
       d="m 295.25001,165.46609 a 5.1325741,3.1146185 0 1 1 -10.26515,0 5.1325741,3.1146185 0 1 1 10.26515,0 z"
       transform="matrix(0.2612728,0,0,0.42478604,111.73878,698.37054)" />
    <path
       sodipodi:type="arc"
       style="fill:#ff0000;fill-opacity:1;stroke:#000000;stroke-width:1;stroke-miterlimit:4;stroke-opacity:1;stroke-dasharray:1, 12;stroke-dashoffset:0"
       id="path15816-6-4"
       sodipodi:cx="290.11743"
       sodipodi:cy="165.46609"
       sodipodi:rx="5.1325741"
       sodipodi:ry="3.1146185"
       d="m 295.25001,165.46609 a 5.1325741,3.1146185 0 1 1 -10.26515,0 5.1325741,3.1146185 0 1 1 10.26515,0 z"
       transform="matrix(0.2612728,0,0,0.42478604,-18.441679,772.4158)" />
    <text
       xml:space="preserve"
       style="font-size:16px;font-style:normal;font-weight:normal;line-height:125%;letter-spacing:0px;word-spacing:0px;fill:#000000;fill-opacity:1;stroke:none;font-family:Sans"
       x="124.36382"
       y="857.69397"
       id="text18687"
       sodipodi:linespacing="125%"><tspan
         sodipodi:role="line"
         id="tspan18689"
         x="124.36382"
         y="857.69397">r</tspan></text>
    <path
       style="fill:#f2f2f2;fill-opacity:1;stroke:#000000;stroke-width:0.35355338;stroke-miterlimit:4;stroke-opacity:1;stroke-dasharray:0.70710678, 0.70710678;stroke-dashoffset:0"
       d="m 132.63854,819.08292 c 15.28077,-8.37326 25.16027,-15.62845 36.50439,-26.80767 2.18761,-2.15582 3.97524,-3.76316 3.9725,-3.57188 -0.003,0.19129 -0.6544,1.54103 -1.44814,2.99944 -6.0208,11.06248 -15.49556,19.727 -26.6492,24.37027 -3.12103,1.29929 -9.30015,3.08618 -11.67244,3.37547 l -1.76777,0.21557 1.06066,-0.5812 0,0 z"
       id="path18691"
       inkscape:connector-curvature="0" />
    <path
       style="fill:#f2f2f2;fill-opacity:1;stroke:#000000;stroke-width:0.35355338;stroke-miterlimit:4;stroke-opacity:1;stroke-dasharray:0.70710678, 0.70710678;stroke-dashoffset:0"
       d="m 171.6072,745.28109 c -3.54448,-4.14864 -8.36205,-9.17657 -12.48832,-13.03361 l -2.8646,-2.6777 2.15749,-1.27429 2.15749,-1.27428 2.25802,2.37715 c 3.86968,4.07384 7.29858,8.92674 9.7108,13.74363 0.99006,1.97703 2.38931,5.50594 2.24169,5.65356 -0.0504,0.0504 -1.47805,-1.53111 -3.17257,-3.51446 z"
       id="path18693"
       inkscape:connector-curvature="0" />
    <path
       style="fill:#f2f2f2;fill-opacity:1;stroke:#000000;stroke-width:0.35355338;stroke-miterlimit:4;stroke-opacity:1;stroke-dasharray:0.70710678, 0.70710678;stroke-dashoffset:0"
       d="m 150.65234,725.03224 c -2.32387,-1.85934 -6.6117,-4.98115 -9.52851,-6.93735 -2.91682,-1.9562 -5.38286,-3.63461 -5.48008,-3.7298 -0.35951,-0.35197 2.4046,0.36168 6.01041,1.5518 2.04177,0.6739 5.16663,1.9908 6.94414,2.92643 3.5131,1.84921 7.9051,4.63227 7.9051,5.00918 0,0.12954 -0.36582,1.20862 -0.81292,2.39795 l -0.81293,2.16242 -4.22521,-3.38063 z"
       id="path18695"
       inkscape:connector-curvature="0" />
    <path
       style="fill:#f2f2f2;fill-opacity:1;stroke:#000000;stroke-width:0.35355338;stroke-miterlimit:4;stroke-opacity:1;stroke-dasharray:0.70710678, 0.70710678;stroke-dashoffset:0"
       d=""
       id="path18697"
       inkscape:connector-curvature="0"
       transform="translate(-214.8972,603.22336)" />
    <path
       style="fill:#f2f2f2;fill-opacity:1;stroke:#000000;stroke-width:0.0625;stroke-miterlimit:4;stroke-opacity:1;stroke-dasharray:0.125, 0.125;stroke-dashoffset:0"
       d="m 159.99272,726.81004 c -0.1375,-0.0284 -0.41047,-0.1055 -0.6066,-0.17134 -1.10673,-0.3715 -2.12859,-1.41602 -2.4894,-2.54457 -0.044,-0.1375 -0.12468,-0.28286 -0.17937,-0.32302 -0.0547,-0.0402 -0.0811,-0.0913 -0.0587,-0.11373 0.0874,-0.0874 3.89116,3.06315 3.82581,3.16888 -0.0358,0.0579 -0.15133,0.0541 -0.49173,-0.0162 z"
       id="path18699"
       inkscape:connector-curvature="0" />
    <path
       style="fill:#f2f2f2;fill-opacity:1;stroke:#000000;stroke-width:0.25;stroke-miterlimit:4;stroke-opacity:1;stroke-dasharray:0.5, 0.5;stroke-dashoffset:0"
       d="m 175.29856,767.65195 -2.40042,-0.0813 -0.15453,-3.30389 c -0.23971,-5.12512 -1.10775,-9.50134 -2.83722,-14.30389 -1.40992,-3.9152 -4.10651,-9.03599 -6.16066,-11.69903 -2.52781,-3.27711 2.6095,1.8625 7.28275,7.28602 1.10754,1.28534 2.65296,3.1716 3.43428,4.19168 1.59673,2.08468 2.02831,3.35186 2.85345,8.37831 0.54411,3.31449 0.94772,9.74542 0.60662,9.66569 -0.12312,-0.0288 -1.30405,-0.0889 -2.62427,-0.1336 l 0,0 z"
       id="path18701"
       inkscape:connector-curvature="0" />
    <path
       style="fill:#f2f2f2;fill-opacity:1;stroke:#000000;stroke-width:0.25;stroke-miterlimit:4;stroke-opacity:1;stroke-dasharray:0.5, 0.5;stroke-dashoffset:0"
       d="m 160.91717,798.56173 c 2.0093,-2.48505 3.70394,-4.79205 4.6228,-6.2933 2.47031,-4.036 4.7576,-9.37856 5.66736,-13.23756 0.4108,-1.74251 0.48716,-1.88218 0.79151,-1.44767 0.33147,0.47325 0.35068,0.47274 1.20598,-0.0319 0.89174,-0.52614 1.02636,-0.82806 0.64075,-1.43703 -0.18216,-0.28768 -0.3811,-0.2495 -1.13831,0.21848 l -0.91757,0.56709 0.139,-0.84348 c 0.46594,-2.82738 0.63638,-4.02754 0.78671,-5.5394 l 0.16862,-1.69591 2.53248,0.0709 2.53247,0.0709 -0.0486,0.75 c -0.22106,3.4115 -0.39699,4.65441 -0.62633,4.42507 -0.16981,-0.16981 -0.53002,-0.0885 -1.10121,0.24848 -0.87476,0.51612 -1.00475,0.81805 -0.61637,1.43168 0.19092,0.30164 0.32563,0.28919 0.89287,-0.0825 0.36741,-0.24074 0.70991,-0.39582 0.76111,-0.34462 0.18284,0.18284 -0.90353,4.87013 -1.75493,7.57187 l -0.86661,2.75 -3.59835,3.75 c -3.38313,3.52571 -9.88342,9.63084 -10.48634,9.84885 -0.15036,0.0544 0.0355,-0.28312 0.41296,-0.75 z"
       id="path18703"
       inkscape:connector-curvature="0" />
  </g>
</svg>
